<svg style="margin:20vh auto;display:block;" version="1.2" xmlns="http://www.w3.org/2000/svg" viewBox="0 0 1842 399" width="600" height="200">
	<title>New Project</title>
	<style>
		.s0 { fill: #000000 } 
	</style>
	<path id="STAY FOCUSED. COMING SOON" class="s0" aria-label="STAY FOCUSED.
COMING SOON"  d="m17.1 111.5h47.2q0.7 4 4.1 6.9 3.4 2.7 9.4 4.3 5.9 1.4 14.2 1.4 10.8 0 16.7-2.1 6.2-2.2 6.2-7 0-3.3-3.5-5.4-3.4-2.4-14-3.1l-22.3-1.4q-30.4-2-43.9-13-13.5-11-13.5-29 0-15.1 8.6-25.2 8.6-10.1 24.1-15.1 15.7-5 36.6-5 20.3 0 36 5.7 15.8 5.6 25 15.9 9.3 10.2 10.2 23.9h-47.1q-0.6-3.2-3.6-5.6-2.9-2.3-8.3-3.6-5.4-1.2-13.1-1.2-9.9 0-15.7 1.9-5.6 2-5.6 6.5 0 3.1 3.3 5.2 3.4 2.2 12.9 2.9l25.2 1.6q19.8 1.3 32 6 12.3 4.5 17.9 12.6 5.7 8.1 5.7 20 0 14.9-8.8 26.1-8.8 11.1-24.8 17.4-15.9 6.1-37.1 6.1-22 0-38.5-5.9-16.6-5.9-25.9-16.7-9.2-10.8-9.6-25.1zm198.4 44.5v-115h46.4v115zm-48.6-93.6v-41.4h143.7v41.4zm261.9 70.9h-92v-36.9h92zm-76.2-112.3h61.9l59.3 135h-49.5l-46.7-114.5h11.9l-46.6 114.5h-49.5zm200.3 135h-46.4v-66.6h46.4zm-38.3-43.4l-71.1-91.6h50.9l44.9 57.8h-19.3l44.6-57.8h51l-70.9 91.1zm171-0.2v-38.7h98.6v38.7zm-22.7-91.4h124.9v38.7h-99.7l21.3-20.7v117h-46.5zm218.4 138.2q-24.7 0-43.2-8.8-18.4-8.8-28.7-24.7-10.2-16-10.2-37.2 0-21.3 10.2-37.1 10.3-16 28.7-24.9 18.5-8.8 43.2-8.8 24.6 0 43 8.8 18.5 8.9 28.8 24.9 10.2 15.8 10.2 37.1 0 21.2-10.2 37.2-10.3 15.9-28.8 24.7-18.4 8.8-43 8.8zm0-41.4q10.9 0 18.9-3.4 7.9-3.6 12-10.1 4.3-6.7 4.3-15.8 0-9.2-4.3-15.7-4.1-6.7-12-10.1-8-3.6-18.9-3.6-11 0-18.9 3.6-8 3.4-12.3 10.1-4.1 6.5-4.1 15.7 0 9.1 4.1 15.8 4.3 6.5 12.3 10.1 7.9 3.4 18.9 3.4zm207.1-20.3h46.7q-2.2 18.5-12.8 32.4-10.5 13.8-27.7 21.6-17.3 7.7-39.6 7.7-24.2 0-42.2-8.8-18-8.8-28-24.7-9.9-16-9.9-37.2 0-21.3 9.9-37.1 10-16 28-24.9 18-8.8 42.2-8.8 22.3 0 39.6 7.8 17.2 7.7 27.7 21.6 10.6 13.8 12.8 32.4h-46.7q-1.6-7.1-5.9-11.9-4.3-5.1-11.3-7.6-6.9-2.7-16.2-2.7-10.5 0-18 3.8-7.4 3.6-11.4 10.6-3.9 7-3.9 16.8 0 9.7 3.9 16.7 4 6.8 11.4 10.6 7.5 3.8 18 3.8 9.3 0 16.2-2.3 7-2.6 11.3-7.4 4.3-5.1 5.9-12.4zm107-76.5v73q0 7.4 2.5 12.8 2.7 5.2 8.1 8.1 5.4 2.9 13.8 2.9 8.7 0 14.1-2.7 5.4-2.9 7.9-8.3 2.5-5.4 2.5-12.8v-73h46.5v75.6q0 18.9-8.9 32.9-8.8 14-24.8 22-15.8 7.7-37.3 7.7-21.2 0-37.2-7.7-15.9-8-24.9-22-8.8-14-8.8-32.9v-75.6zm110.9 90.5h47.2q0.7 4 4.1 6.8 3.4 2.7 9.4 4.4 5.9 1.4 14.2 1.4 10.8 0 16.7-2.2 6.1-2.1 6.1-7 0-3.2-3.4-5.4-3.4-2.3-14-3l-22.3-1.5q-30.5-2-44-12.9-13.5-11-13.5-29 0-15.1 8.7-25.2 8.6-10.1 24.1-15.1 15.7-5.1 36.5-5.1 20.4 0 36 5.8 15.9 5.6 25.1 15.8 9.3 10.3 10.2 24h-47.1q-0.6-3.3-3.6-5.6-2.9-2.4-8.3-3.6-5.4-1.3-13.2-1.3-9.9 0-15.6 2-5.6 2-5.6 6.5 0 3 3.2 5.2 3.5 2.2 13 2.9l25.2 1.6q19.8 1.3 32 5.9 12.3 4.5 17.9 12.6 5.7 8.1 5.7 20 0 15-8.8 26.1-8.8 11.2-24.8 17.5-15.9 6.1-37.1 6.1-22 0-38.5-5.9-16.6-6-26-16.8-9.1-10.8-9.5-25zm178.9-39.1h101.7v32.1h-101.7zm23.6-34.2l8.3 50.2-8.3 50.2-17.6-19.4h102.4v36.7h-130.7l9.9-67.5-9.9-67.5h129.8v36.7h-101.5zm103.8-17.3h71.7q24.6 0 43 8.5 18.5 8.3 28.8 23.4 10.2 15.1 10.2 35.6 0 20.4-10.2 35.7-10.3 15.1-28.8 23.6-18.4 8.2-43 8.2h-71.7zm46.1 20.7v93.6l-20.9-20.7h50.1q9.9 0 16.9-3 7.2-3.3 11-9 3.7-6 3.7-14.1 0-8.2-3.7-14-3.8-5.8-11-8.8-7-3.3-16.9-3.3h-50.1zm139 116.5q-6.9 0-12.6-3.2-5.6-3.3-8.8-8.9-3.3-5.7-3.3-12.6 0-7 3.3-12.6 3.2-5.5 8.8-8.8 5.7-3.2 12.6-3.2 7 0 12.6 3.2 5.6 3.3 8.8 8.8 3.2 5.6 3.2 12.6 0 6.9-3.2 12.6-3.2 5.6-8.8 8.9-5.6 3.2-12.6 3.2zm-1623.5 155.3h46.6q-2.2 18.6-12.8 32.4-10.4 13.9-27.7 21.6-17.3 7.8-39.6 7.8-24.1 0-42.1-8.8-18-8.9-28.1-24.7-9.9-16-9.9-37.3 0-21.2 9.9-37 10.1-16.1 28.1-24.9 18-8.8 42.1-8.8 22.3 0 39.6 7.7 17.3 7.8 27.7 21.6 10.6 13.9 12.8 32.4h-46.6q-1.7-7-6-11.8-4.3-5.1-11.3-7.6-6.9-2.7-16.2-2.7-10.5 0-18 3.8-7.4 3.6-11.4 10.6-3.9 7-3.9 16.7 0 9.8 3.9 16.8 4 6.8 11.4 10.6 7.5 3.8 18 3.8 9.3 0 16.2-2.4 7-2.5 11.3-7.3 4.3-5.1 6-12.5zm139.3 61.8q-24.7 0-43.2-8.8-18.4-8.9-28.6-24.7-10.3-16-10.3-37.3 0-21.2 10.3-37 10.2-16.1 28.6-24.9 18.5-8.8 43.2-8.8 24.6 0 43 8.8 18.5 8.8 28.8 24.9 10.3 15.8 10.3 37 0 21.3-10.3 37.3-10.3 15.8-28.8 24.7-18.4 8.8-43 8.8zm0-41.4q11 0 18.9-3.4 7.9-3.6 12-10.1 4.4-6.7 4.4-15.9 0-9.1-4.4-15.6-4.1-6.7-12-10.1-7.9-3.6-18.9-3.6-11 0-18.9 3.6-7.9 3.4-12.3 10.1-4.1 6.5-4.1 15.6 0 9.2 4.1 15.9 4.4 6.5 12.3 10.1 7.9 3.4 18.9 3.4zm234.7-96.9h71.8v135h-44.1v-117.5l8.5 1.1-45.4 116.4h-45.9l-45.3-115.9 8.4-1.2v117.1h-44.1v-135h71.8l40.4 110h-16.1zm93.5 135v-135h46.4v135zm128-135l65.1 101.2-12.6 3v-104.2h45v135h-58.1l-67-104 12.6-3.1v107.1h-45v-135zm240 76.7h19.6q-0.7 11.9-5 23-4.2 11-12.5 19.8-8.1 8.7-20.7 13.7-12.6 5.1-29.8 5.1-15.7 0-29.7-4.5-13.9-4.5-24.7-13.4-10.6-9-16.7-22.1-6.2-13.3-6.2-30.8 0-17.4 6.2-30.6 6.1-13.3 17.1-22.1 10.9-9 25.3-13.5 14.4-4.5 31.2-4.5 23.4 0 39.9 7 16.8 6.8 26.9 18.9 10.2 12.1 13.5 27.9h-46.7q-1.6-5-6.4-8.5-4.7-3.6-11.6-5.4-6.8-1.9-15.3-1.9-10.4 0-18 3.6-7.5 3.4-11.7 10.6-3.9 7.2-3.9 18.5 0 11.5 4.5 19.1 4.7 7.6 13.1 11.2 8.7 3.6 20.4 3.6 11.3 0 20.1-2.6 8.8-2.7 14.2-8.1 5.6-5.5 6.9-14zm4.5 12.4h-42.9v-26.3h73.8v72.2h-32.2l-6.8-51.6zm88.4 1.4h47.1q0.7 4 4.2 6.8 3.4 2.7 9.3 4.4 6 1.4 14.2 1.4 10.8 0 16.8-2.2 6.1-2.1 6.1-7 0-3.2-3.4-5.4-3.4-2.3-14.1-3l-22.3-1.5q-30.4-2-43.9-12.9-13.5-11-13.5-29 0-15.1 8.6-25.2 8.7-10.1 24.2-15.1 15.6-5.1 36.5-5.1 20.3 0 36 5.8 15.8 5.6 25 15.8 9.4 10.3 10.3 24h-47.2q-0.5-3.3-3.6-5.6-2.9-2.4-8.3-3.6-5.4-1.3-13.1-1.3-9.9 0-15.7 2-5.5 2-5.5 6.5 0 3 3.2 5.2 3.4 2.2 13 2.9l25.2 1.6q19.8 1.3 32 5.9 12.2 4.5 17.8 12.6 5.8 8.1 5.8 20 0 15-8.8 26.1-8.9 11.2-24.9 17.5-15.8 6.1-37.1 6.1-21.9 0-38.5-5.9-16.5-6-25.9-16.8-9.2-10.8-9.5-25zm238.1 47.7q-24.7 0-43.2-8.8-18.4-8.8-28.6-24.7-10.3-16-10.3-37.2 0-21.3 10.3-37.1 10.2-16 28.6-24.9 18.5-8.8 43.2-8.8 24.7 0 43 8.8 18.6 8.9 28.8 24.9 10.3 15.8 10.3 37.1 0 21.2-10.3 37.2-10.2 15.9-28.8 24.7-18.3 8.8-43 8.8zm0-41.4q11 0 18.9-3.4 7.9-3.6 12.1-10.1 4.3-6.7 4.3-15.8 0-9.2-4.3-15.7-4.2-6.7-12.1-10.1-7.9-3.6-18.9-3.6-11 0-18.9 3.6-7.9 3.4-12.2 10.1-4.2 6.5-4.2 15.7 0 9.1 4.2 15.8 4.3 6.5 12.2 10.1 7.9 3.4 18.9 3.4zm175.7 41.4q-24.7 0-43.2-8.8-18.4-8.8-28.6-24.7-10.3-16-10.3-37.2 0-21.3 10.3-37.1 10.2-16 28.6-24.9 18.5-8.8 43.2-8.8 24.6 0 43 8.8 18.5 8.9 28.8 24.9 10.3 15.8 10.3 37.1 0 21.2-10.3 37.2-10.3 15.9-28.8 24.7-18.4 8.8-43 8.8zm0-41.4q11 0 18.9-3.4 7.9-3.6 12-10.1 4.4-6.7 4.4-15.8 0-9.2-4.4-15.7-4.1-6.7-12-10.1-7.9-3.6-18.9-3.6-11 0-18.9 3.6-7.9 3.4-12.3 10.1-4.1 6.5-4.1 15.7 0 9.1 4.1 15.8 4.4 6.5 12.3 10.1 7.9 3.4 18.9 3.4zm158.6-96.8l65.1 101.1-12.6 3.1v-104.2h45v135h-58.1l-67-104.1 12.6-3v107.1h-45v-135z"/>
</svg>
