<svg version="1.2" xmlns="http://www.w3.org/2000/svg" viewBox="0 0 1500 148" width="1500" height="148"><path  d="m55 5.3v75.1q0 7.5 2.6 13.1 2.7 5.4 8.3 8.3 5.5 3 14.2 3 8.9 0 14.5-2.8 5.5-3 8.1-8.5 2.6-5.6 2.6-13.1v-75.1l47.7-0.1v77.8q0 19.4-9 33.8-9.1 14.4-25.6 22.6-16.2 7.9-38.3 7.9-21.8 0-38.3-7.9-16.2-8.2-25.5-22.6-9.1-14.4-9.1-33.8v-77.8zm180.2 0l67 104-12.9 3.2v-107.2l46.2 0.1v138.7h-59.7l-68.9-106.9 13-3.2v110.1h-46.3v-138.7zm145.8 93.9v-39.7h101.4v39.7zm-23.3-93.9h128.4v39.7h-102.5l21.8-21.2v120.2h-47.7zm224.4 142.1q-25.4 0-44.4-9.1-18.9-9-29.4-25.3-10.6-16.5-10.6-38.3 0-21.9 10.6-38.1 10.5-16.5 29.4-25.6 19-9 44.4-9 25.3 0 44.2 9 19.1 9.1 29.6 25.6 10.5 16.2 10.5 38.1 0 21.8-10.5 38.3-10.5 16.3-29.6 25.3-18.9 9.1-44.2 9.1zm0-42.6q11.3 0 19.4-3.5 8.2-3.7 12.4-10.3 4.4-6.9 4.4-16.3 0-9.5-4.4-16.1-4.2-6.9-12.4-10.4-8.1-3.7-19.4-3.7-11.3 0-19.4 3.7-8.2 3.5-12.6 10.4-4.3 6.6-4.3 16.1 0 9.4 4.3 16.3 4.4 6.6 12.6 10.3 8.1 3.5 19.4 3.5zm212.9-20.9h47.9q-2.2 19.1-13.1 33.3-10.7 14.3-28.5 22.2-17.7 8-40.7 8-24.8 0-43.3-9.1-18.5-9-28.8-25.3-10.2-16.5-10.2-38.3 0-21.9 10.2-38.1 10.3-16.5 28.8-25.6 18.5-9 43.3-9 23 0 40.7 7.9 17.8 8 28.5 22.2 10.9 14.3 13.1 33.3h-47.9q-1.6-7.2-6.1-12.2-4.4-5.2-11.6-7.8-7.1-2.7-16.7-2.7-10.7 0-18.5 3.9-7.6 3.7-11.6 10.9-4.1 7.2-4.1 17.2 0 10 4.1 17.2 4 7 11.6 10.9 7.8 3.9 18.5 3.9 9.6 0 16.7-2.4 7.2-2.6 11.6-7.6 4.5-5.2 6.1-12.8zm109.9-78.6v75.1q0 7.6 2.6 13.1 2.8 5.4 8.3 8.4 5.6 2.9 14.3 2.9 8.9 0 14.4-2.7 5.6-3 8.1-8.6 2.6-5.5 2.6-13.1v-75.1h47.8v77.7q0 19.4-9.1 33.9-9.1 14.4-25.5 22.5-16.3 8-38.3 8-21.9 0-38.3-8-16.3-8.1-25.5-22.5-9.1-14.5-9.1-33.9v-77.7zm113.9 93.1h48.5q0.8 4 4.3 7 3.5 2.8 9.6 4.4 6.1 1.5 14.6 1.5 11.1 0 17.2-2.2 6.3-2.2 6.3-7.2 0-3.4-3.5-5.6-3.5-2.4-14.4-3.1l-23-1.5q-31.2-2-45.1-13.3-13.9-11.3-13.9-29.8 0-15.5 8.9-25.9 8.9-10.4 24.8-15.5 16.1-5.2 37.5-5.2 20.9 0 37 5.9 16.3 5.7 25.7 16.3 9.7 10.5 10.6 24.6h-48.5q-0.5-3.4-3.7-5.8-2.9-2.4-8.5-3.7-5.5-1.3-13.5-1.3-10.2 0-16.1 2.1-5.7 2-5.7 6.6 0 3.2 3.3 5.4 3.5 2.2 13.3 3l25.9 1.6q20.4 1.3 32.9 6.1 12.6 4.7 18.4 13 5.9 8.3 5.9 20.5 0 15.4-9.1 26.8-9 11.5-25.5 18-16.3 6.3-38.1 6.3-22.6 0-39.6-6.1-17-6.1-26.6-17.2-9.5-11.1-9.9-25.7zm183.9-40.2h104.6v32.9h-104.6zm24.3-35.1l8.5 51.6-8.5 51.6-18.2-20h105.3v37.8h-134.3l10.2-69.4-10.2-69.4h133.4v37.8h-104.4zm106.8-17.8h73.6q25.4 0 44.2 8.7 19.1 8.5 29.6 24.1 10.6 15.5 10.6 36.6 0 20.9-10.6 36.6-10.5 15.6-29.6 24.3-18.8 8.5-44.2 8.5h-73.6zm47.3 21.2v96.2l-21.4-21.2h51.4q10.2 0 17.4-3.2 7.4-3.3 11.3-9.2 3.9-6.1 3.9-14.5 0-8.5-3.9-14.4-3.9-5.9-11.3-9.1-7.2-3.3-17.4-3.3h-51.4z"/></svg>
